<?xml version="1.0" encoding="UTF-8"?>
<svg id="Capa_1" data-name="Capa 1" xmlns="http://www.w3.org/2000/svg" viewBox="0 0 376 404.13">
  <path d="M70.24,253.96c-8.6-69.16-12.5-140.71-41.29-205.07-.33-17.59,19.05-24.23,33.08-28.92,77.71-25.98,185.94-28.49,262.27,3.66,35.2,14.83,19.14,27.89,11.06,53.69-16.38,52.33-22.35,107.14-28.28,161.52-.51,4.71,1.51,11.23-1.62,14.74-71.89,39.13-163.01,38.58-235.22.37Z"/>
  <path d="M308.28,301.42c1.31-1.34,1.69-3.56,1.95-5.4l-3.22-37.57c-.04-1.43.44-2.5,1.64-3.31,1.85-1.26,26.48-5.41,30.34-5.65,41.01-2.53,41.55,19.77,31.79,53.06-40.06,136.63-332.29,136.09-367.25-5.61-7.91-32.05-4.77-50,32.71-47.44,4.91.34,30.61,4.32,31.72,7.54,2.39,6.95-3.41,31.61-2.38,40.78.65,4.55,19.5,12.04,24.4,14.12,56.18,23.88,117.29,26.97,175.43,7.95,6.56-2.14,39.62-15.13,42.87-18.47Z"/>
</svg>