<?xml version="1.0" encoding="UTF-8"?>
<svg id="Capa_1" data-name="Capa 1" xmlns="http://www.w3.org/2000/svg" viewBox="0 0 1027.95 425.49">
  <path d="M198.62,314.83c-1.31,10.95-6.26,18.81-18.08,19.16-24.72.75-15.02-26.96-24.79-38.12-3.49-3.98-29.22-15.26-36.85-20.19-15.68-10.13-54.93-44.08-57.15-62.76-2.91-24.48,44.63-39.36,63.14-44.99,6.64-2.02,33.34-6.59,35.86-9.76,3.05-11.25,4.09-63.13,13.07-68.7,6.7-4.16,15.5,6.87,18.14,12.4,5.31,11.14,5.38,50.99,10.36,54.28,1.91,1.26,35.87,2.17,42.61,3.02,20.58,2.58,64.05,12.68,74.47,31.99,13.64,25.26-2.64,48.07-30.49,45.73-26.65-2.24-.58-14.77,6.6-23.77.08-11.23-84.57-22.47-96.93-21.87.52,20.68-2.99,41.03-1.87,61.77.29,5.48,2.45,28.85,4.71,31.41,2.35,2.65,30.26,5.5,36.06,5.76,61.18,2.8,162.18-20.3,138.86-102.74C346.47,81.84,126.05,7.25,29,30.22c-2.84.67-10.18,1.91-11,5.12,46.87,12.2-12.56,21.03-16.86,8.32C-7.77,17.26,37.77,3.17,57.2,1.39c93.05-8.52,197.21,22.7,272.35,76.96,61.47,44.38,133.79,131.38,60.04,200.3-49.69,46.43-127.52,50.05-190.97,36.19ZM156.74,269.2c.68-10.56,7.65-71.28,2.05-75.21-3.87-2.72-49.26,3.88-57.18,5.8-10.46,2.54-35.02,6.76-24.67,20.92,16.63,22.75,53.42,40.47,79.8,48.48Z"/>
  <path d="M911.51,244.48c23.27-20.23,39.23-49.59,65.91-66.2,11.32-7.05,22.42-13.23,34.74-5,15.69,10.48,17.07,41.8,15.1,58.63-5.18,44.18-57.38,79.74-100.3,77.45-7.6,20.48-14.97,41.2-20.23,62.47-2.04,8.27-8.49,49.61-10.23,52.14-3.14,4.57-16.13-2.43-19.32-5.46-19.25-18.33-10.5-59.62-4.21-82.34,3.11-11.24,20.31-51.14,19.18-57.94-.57-3.42-3.93-7.78-4.88-12.37-7.06-33.9,15.84-83.62,42.35-104.98,13.66-11.01,13.94-2.65,10.95,10.96-5.5,25.05-31.62,45.04-29.05,72.62ZM951.42,267.29c24.77-2.56,53.66-24,55.14-50.43.22-3.89-.36-15.11-4.83-16.1-7.48-1.66-55.65,61.36-50.31,66.53Z"/>
  <path d="M629.8,164.95c1.31,2.14.36,8.58-.52,11.22-2.67,8.05-15.47,8.39-22.94,9.36-30.61,4.01-65.44-.83-94.07,12.39,24.87,10.98,80.77,4.46,101.71,19.94,19.15,14.16,19.05,52.71-1.08,67.38-27.65,20.15-82.69,16.92-109.14-4.68-21.04-17.18-19.87-41.64,8.44-48.5,24.49-5.94,56-.97,75.72,15.24.52,6.14-17.8,11.99-23.27,12.49-20.22,1.83-37.08-14.59-52.92-11.1-4.15.91-11.72,6.93-8.94,10.97.59.86,17.63,5.25,20.14,5.54,14.76,1.73,30.07-.01,44.49-2.63,7.28-1.32,35.86-6.81,36.06-15.17.36-15.32-44.85-20.65-56.05-21.91-15.7-1.77-55.44,1.6-62.76-13.28-16.62-33.79,37.82-52.91,62.8-55.13,11.42-1.02,77.4-.17,82.33,7.88Z"/>
  <path d="M670.03,215.98c-2.77-.35-3.41,4.98-3.6,6.81-2.28,21.35,2.29,42.54-4.51,63.93-7.05,22.15-24.61,14.11-27.48-5.66-3.44-23.71,2.71-72.88,12.47-94.89,2.54-5.72,7.8-18.1,14.42-17.76,16.27.82,43.94,54.61,53.58,68.31,5.17,7.35,11.53,16.75,11.45,1.46-.15-29.26-16.86-60.08-18.37-85.81-.26-4.49-.84-13.25,3.85-15.39,8.68,1.17,14.57,8.4,19.49,14.87,18.93,24.9,32.21,74.02,25.65,104.48-3.34,15.5-14.79,39.77-34.25,35.29-16.88-3.89-45.19-59.32-52.7-75.63Z"/>
  <path d="M793.62,193.18c-13.9-1.73-37.13-22.72-12.18-26.46,13.78-2.07,31.6-4.45,45.48-5.85,10.66-1.07,35.62-2.4,45.22.35,4.23,1.21,16.6,17.09,16.52,21.53-.31,16.47-56.4,6.31-65.59,14.19-2.69,2.3-6.97,13.52-2.92,16.29,7.51,5.13,38.22-7.16,43.05,8.38,8.75,28.13-39.86,12.51-52.43,18.16-6.06,2.72-16.88,27.88-5.03,27.45,9.63-.35,25.46-6.35,36.61-7.27,12.56-1.04,28.39-1.99,25.45,15.83-.88,5.36-20.93,17.97-26.61,21.03-34.27,18.49-86.53,18.81-77.53-33.8,1.32-7.7,7.96-14.75,8.95-21.5,1.32-8.98-5.62-18.35,2.87-23.72,3.06-1.94,7.03-1.44,9.58-3.72,1.45-1.3,9.23-19.98,8.56-20.89Z"/>
  <path d="M404.52,110.84c-14.97-24.23,11.69-54.95,32.34-66.28,18.83-10.34,42.37-16.45,63.14-9.28,5.3,1.83,27.05,12.65,31.91,15.61,32.91,20.07-4.31,56.79-24.77,69.66-21.6,13.59-35.14,16.13-60.54,15.67-3.96-.07-8.24-2.29-11.3-2-6.38.6-8.11,11.57-16.72,9.24-10.77-2.92-5.37-18.79-7.9-26.47-1.45-4.4-5.28-4.7-6.17-6.14ZM449.53,109.51h27.57c9.3,0,38.33-16.32,43.63-24.8,3.1-4.96,5.59-14.81-.85-17.97-19.58-9.62-61.51,25.67-70.35,42.77Z"/>
  <path d="M442.4,297.22c-1.36-1.3-4.74-10.27-5.35-12.71-4.89-19.44-1.91-99.97,5.83-117.97,5.4-12.58,16.28-7.52,20.42,2.38,4.48,10.7,6.71,58.33,7.21,72.63.31,8.67,1.22,49.14-1.84,53.45-3.98,5.62-21.7,6.59-26.28,2.22Z"/>
</svg>