<?xml version="1.0" encoding="UTF-8"?>
<svg id="Capa_1" data-name="Capa 1" xmlns="http://www.w3.org/2000/svg" viewBox="0 0 1924.31 727.11">
  <defs>
    <style>
      .cls-1 {
        fill: #efdbc0;
      }

      .cls-2 {
        fill: #9e2024;
      }
    </style>
  </defs>
  <rect y="2.66" width="1923.69" height="720.88"/>
  <g>
    <g>
      <g>
        <g>
          <g>
            <g>
              <polygon class="cls-1" points="56.5 3.53 1.22 61.73 64.35 121.54 121.16 61.73 56.5 3.53"/>
              <polygon class="cls-2" points="175.91 3.29 120.63 61.48 183.75 121.3 240.56 61.48 175.91 3.29"/>
            </g>
            <g>
              <polygon class="cls-1" points="297.14 2.86 241.86 61.06 304.98 120.87 361.8 61.06 297.14 2.86"/>
              <polygon class="cls-2" points="416.55 2.61 361.27 60.81 424.39 120.62 481.2 60.81 416.55 2.61"/>
            </g>
          </g>
          <g>
            <g>
              <polygon class="cls-1" points="536.61 2.68 481.33 60.87 544.45 120.69 601.27 60.88 536.61 2.68"/>
              <polygon class="cls-2" points="656.01 2.43 600.74 60.63 663.86 120.44 720.67 60.63 656.01 2.43"/>
            </g>
            <g>
              <polygon class="cls-1" points="777.25 2.01 721.97 60.2 785.09 120.01 841.91 60.2 777.25 2.01"/>
              <polygon class="cls-2" points="896.65 1.76 841.38 59.95 904.5 119.77 961.31 59.96 896.65 1.76"/>
            </g>
          </g>
        </g>
        <g>
          <g>
            <g>
              <polygon class="cls-1" points="1017.27 1.78 961.99 59.97 1025.11 119.79 1081.92 59.97 1017.27 1.78"/>
              <polygon class="cls-2" points="1136.67 1.53 1081.39 59.72 1144.51 119.54 1201.33 59.73 1136.67 1.53"/>
            </g>
            <g>
              <polygon class="cls-1" points="1257.91 1.1 1202.63 59.3 1265.75 119.11 1322.56 59.3 1257.91 1.1"/>
              <polygon class="cls-2" points="1377.31 .86 1322.03 59.05 1385.15 118.87 1441.97 59.05 1377.31 .86"/>
            </g>
          </g>
          <g>
            <g>
              <polygon class="cls-1" points="1497.38 .92 1442.1 59.12 1505.22 118.93 1562.03 59.12 1497.38 .92"/>
              <polygon class="cls-2" points="1616.78 .67 1561.5 58.87 1624.62 118.68 1681.43 58.87 1616.78 .67"/>
            </g>
            <g>
              <polygon class="cls-1" points="1738.02 .25 1682.74 58.44 1745.86 118.26 1802.67 58.44 1738.02 .25"/>
              <polygon class="cls-2" points="1857.42 0 1802.14 58.2 1865.26 118.01 1922.07 58.2 1857.42 0"/>
            </g>
          </g>
        </g>
      </g>
      <g>
        <g>
          <g>
            <g>
              <polygon class="cls-1" points="1865.39 118.87 1921.08 176.68 1858.38 236.93 1801.15 177.52 1865.39 118.87"/>
              <polygon class="cls-2" points="1745.99 119.46 1801.68 177.26 1738.98 237.52 1681.75 178.1 1745.99 119.46"/>
            </g>
            <g>
              <polygon class="cls-1" points="1624.76 119.87 1680.44 177.68 1617.74 237.93 1560.51 178.52 1624.76 119.87"/>
              <polygon class="cls-2" points="1505.35 120.46 1561.04 178.27 1498.34 238.52 1441.11 179.1 1505.35 120.46"/>
            </g>
          </g>
          <g>
            <g>
              <polygon class="cls-1" points="1385.29 121.36 1440.97 179.17 1378.27 239.42 1321.04 180 1385.29 121.36"/>
              <polygon class="cls-2" points="1265.89 121.94 1321.57 179.75 1258.87 240 1201.64 180.59 1265.89 121.94"/>
            </g>
            <g>
              <polygon class="cls-1" points="1144.65 122.36 1200.34 180.17 1137.63 240.42 1080.4 181.01 1144.65 122.36"/>
              <polygon class="cls-2" points="1025.25 122.95 1080.93 180.75 1018.23 241.01 961 181.59 1025.25 122.95"/>
            </g>
          </g>
        </g>
        <g>
          <g>
            <g>
              <polygon class="cls-1" points="904.64 123.8 960.32 181.61 897.62 241.86 840.39 182.45 904.64 123.8"/>
              <polygon class="cls-2" points="785.24 124.39 840.92 182.2 778.22 242.45 720.99 183.03 785.24 124.39"/>
            </g>
            <g>
              <polygon class="cls-1" points="664 124.8 719.69 182.61 656.98 242.87 599.75 183.45 664 124.8"/>
              <polygon class="cls-2" points="544.6 125.39 600.28 183.2 537.58 243.45 480.35 184.04 544.6 125.39"/>
            </g>
          </g>
          <g>
            <g>
              <polygon class="cls-1" points="424.54 126.29 480.22 184.1 417.52 244.35 360.29 184.94 424.54 126.29"/>
              <polygon class="cls-2" points="305.14 126.87 360.82 184.68 298.12 244.94 240.89 185.52 305.14 126.87"/>
            </g>
            <g>
              <polygon class="cls-1" points="183.9 127.29 239.58 185.1 176.88 245.35 119.65 185.94 183.9 127.29"/>
              <polygon class="cls-2" points="64.5 127.88 120.18 185.69 57.48 245.94 .25 186.52 64.5 127.88"/>
            </g>
          </g>
        </g>
      </g>
    </g>
    <g>
      <g>
        <g>
          <g>
            <g>
              <polygon class="cls-1" points="57.51 244.22 2.23 302.42 65.35 362.23 122.17 302.42 57.51 244.22"/>
              <polygon class="cls-2" points="176.91 243.98 121.64 302.17 184.76 361.99 241.57 302.18 176.91 243.98"/>
            </g>
            <g>
              <polygon class="cls-1" points="298.15 243.55 242.87 301.75 305.99 361.56 362.81 301.75 298.15 243.55"/>
              <polygon class="cls-2" points="417.55 243.3 362.28 301.5 425.4 361.31 482.21 301.5 417.55 243.3"/>
            </g>
          </g>
          <g>
            <g>
              <polygon class="cls-1" points="537.62 243.37 482.34 301.56 545.46 361.38 602.28 301.57 537.62 243.37"/>
              <polygon class="cls-2" points="657.02 243.12 601.74 301.32 664.86 361.13 721.68 301.32 657.02 243.12"/>
            </g>
            <g>
              <polygon class="cls-1" points="778.26 242.7 722.98 300.89 786.1 360.71 842.92 300.89 778.26 242.7"/>
              <polygon class="cls-2" points="897.66 242.45 842.38 300.64 905.5 360.46 962.32 300.65 897.66 242.45"/>
            </g>
          </g>
        </g>
        <g>
          <g>
            <g>
              <polygon class="cls-1" points="1018.28 242.47 963 300.66 1026.12 360.48 1082.93 300.66 1018.28 242.47"/>
              <polygon class="cls-2" points="1137.68 242.22 1082.4 300.42 1145.52 360.23 1202.33 300.42 1137.68 242.22"/>
            </g>
            <g>
              <polygon class="cls-1" points="1258.92 241.79 1203.64 299.99 1266.76 359.8 1323.57 299.99 1258.92 241.79"/>
              <polygon class="cls-2" points="1378.32 241.55 1323.04 299.74 1386.16 359.56 1442.97 299.74 1378.32 241.55"/>
            </g>
          </g>
          <g>
            <g>
              <polygon class="cls-1" points="1498.39 241.61 1443.11 299.81 1506.23 359.62 1563.04 299.81 1498.39 241.61"/>
              <polygon class="cls-2" points="1617.79 241.36 1562.51 299.56 1625.63 359.37 1682.44 299.56 1617.79 241.36"/>
            </g>
            <g>
              <polygon class="cls-1" points="1739.03 240.94 1683.75 299.13 1746.87 358.95 1803.68 299.14 1739.03 240.94"/>
              <polygon class="cls-2" points="1858.43 240.69 1803.15 298.89 1866.27 358.7 1923.08 298.89 1858.43 240.69"/>
            </g>
          </g>
        </g>
      </g>
      <g>
        <g>
          <g>
            <g>
              <polygon class="cls-1" points="1866.4 359.56 1922.09 417.37 1859.39 477.62 1802.15 418.21 1866.4 359.56"/>
              <polygon class="cls-2" points="1747 360.15 1802.69 417.96 1739.98 478.21 1682.75 418.79 1747 360.15"/>
            </g>
            <g>
              <polygon class="cls-1" points="1625.76 360.56 1681.45 418.37 1618.75 478.63 1561.52 419.21 1625.76 360.56"/>
              <polygon class="cls-2" points="1506.36 361.15 1562.05 418.96 1499.35 479.21 1442.12 419.79 1506.36 361.15"/>
            </g>
          </g>
          <g>
            <g>
              <polygon class="cls-1" points="1386.3 362.05 1441.98 419.86 1379.28 480.11 1322.05 420.7 1386.3 362.05"/>
              <polygon class="cls-2" points="1266.9 362.63 1322.58 420.44 1259.88 480.69 1202.65 421.28 1266.9 362.63"/>
            </g>
            <g>
              <polygon class="cls-1" points="1145.66 363.05 1201.34 420.86 1138.64 481.11 1081.41 421.7 1145.66 363.05"/>
              <polygon class="cls-2" points="1026.26 363.64 1081.94 421.45 1019.24 481.7 962.01 422.28 1026.26 363.64"/>
            </g>
          </g>
        </g>
        <g>
          <g>
            <g>
              <polygon class="cls-1" points="905.65 364.49 961.33 422.3 898.63 482.55 841.4 423.14 905.65 364.49"/>
              <polygon class="cls-2" points="786.25 365.08 841.93 422.89 779.23 483.14 722 423.72 786.25 365.08"/>
            </g>
            <g>
              <polygon class="cls-1" points="665.01 365.5 720.69 423.3 657.99 483.56 600.76 424.14 665.01 365.5"/>
              <polygon class="cls-2" points="545.61 366.08 601.29 423.89 538.59 484.14 481.36 424.73 545.61 366.08"/>
            </g>
          </g>
          <g>
            <g>
              <polygon class="cls-1" points="425.55 366.98 481.23 424.79 418.53 485.04 361.3 425.63 425.55 366.98"/>
              <polygon class="cls-2" points="306.15 367.57 361.83 425.37 299.13 485.63 241.9 426.21 306.15 367.57"/>
            </g>
            <g>
              <polygon class="cls-1" points="184.91 367.98 240.59 425.79 177.89 486.04 120.66 426.63 184.91 367.98"/>
              <polygon class="cls-2" points="65.51 368.57 121.19 426.38 58.49 486.63 1.26 427.21 65.51 368.57"/>
            </g>
          </g>
        </g>
      </g>
    </g>
    <g>
      <g>
        <g>
          <g>
            <g>
              <polygon class="cls-1" points="58.74 484.71 3.47 542.91 66.59 602.72 123.4 542.91 58.74 484.71"/>
              <polygon class="cls-2" points="178.15 484.46 122.87 542.66 185.99 602.47 242.8 542.66 178.15 484.46"/>
            </g>
            <g>
              <polygon class="cls-1" points="299.38 484.04 244.11 542.23 307.23 602.05 364.04 542.23 299.38 484.04"/>
              <polygon class="cls-2" points="418.79 483.79 363.51 541.99 426.63 601.8 483.44 541.99 418.79 483.79"/>
            </g>
          </g>
          <g>
            <g>
              <polygon class="cls-1" points="538.85 483.85 483.57 542.05 546.69 601.86 603.51 542.05 538.85 483.85"/>
              <polygon class="cls-2" points="658.25 483.61 602.98 541.8 666.1 601.62 722.91 541.8 658.25 483.61"/>
            </g>
            <g>
              <polygon class="cls-1" points="779.49 483.18 724.21 541.38 787.33 601.19 844.15 541.38 779.49 483.18"/>
              <polygon class="cls-2" points="898.89 482.93 843.62 541.13 906.74 600.94 963.55 541.13 898.89 482.93"/>
            </g>
          </g>
        </g>
        <g>
          <g>
            <g>
              <polygon class="cls-1" points="1019.51 482.95 964.23 541.15 1027.35 600.96 1084.16 541.15 1019.51 482.95"/>
              <polygon class="cls-2" points="1138.91 482.7 1083.63 540.9 1146.75 600.71 1203.57 540.9 1138.91 482.7"/>
            </g>
            <g>
              <polygon class="cls-1" points="1260.15 482.28 1204.87 540.47 1267.99 600.29 1324.8 540.48 1260.15 482.28"/>
              <polygon class="cls-2" points="1379.55 482.03 1324.27 540.23 1387.39 600.04 1444.21 540.23 1379.55 482.03"/>
            </g>
          </g>
          <g>
            <g>
              <polygon class="cls-1" points="1499.62 482.1 1444.34 540.29 1507.46 600.11 1564.27 540.29 1499.62 482.1"/>
              <polygon class="cls-2" points="1619.02 481.85 1563.74 540.04 1626.86 599.86 1683.68 540.05 1619.02 481.85"/>
            </g>
            <g>
              <polygon class="cls-1" points="1740.26 481.42 1684.98 539.62 1748.1 599.43 1804.91 539.62 1740.26 481.42"/>
              <polygon class="cls-2" points="1859.66 481.18 1804.38 539.37 1867.5 599.19 1924.31 539.37 1859.66 481.18"/>
            </g>
          </g>
        </g>
      </g>
      <g>
        <g>
          <g>
            <g>
              <polygon class="cls-1" points="1867.63 600.05 1923.32 657.86 1860.62 718.11 1803.39 658.69 1867.63 600.05"/>
              <polygon class="cls-2" points="1748.23 600.63 1803.92 658.44 1741.22 718.69 1683.99 659.28 1748.23 600.63"/>
            </g>
            <g>
              <polygon class="cls-1" points="1627 601.05 1682.68 658.86 1619.98 719.11 1562.75 659.7 1627 601.05"/>
              <polygon class="cls-2" points="1507.6 601.63 1563.28 659.44 1500.58 719.69 1443.35 660.28 1507.6 601.63"/>
            </g>
          </g>
          <g>
            <g>
              <polygon class="cls-1" points="1387.53 602.53 1443.21 660.34 1380.51 720.6 1323.28 661.18 1387.53 602.53"/>
              <polygon class="cls-2" points="1268.13 603.12 1323.81 660.93 1261.11 721.18 1203.88 661.76 1268.13 603.12"/>
            </g>
            <g>
              <polygon class="cls-1" points="1146.89 603.54 1202.58 661.35 1139.87 721.6 1082.64 662.18 1146.89 603.54"/>
              <polygon class="cls-2" points="1027.49 604.12 1083.18 661.93 1020.47 722.18 963.24 662.77 1027.49 604.12"/>
            </g>
          </g>
        </g>
        <g>
          <g>
            <g>
              <polygon class="cls-1" points="906.88 604.98 962.56 662.79 899.86 723.04 842.63 663.62 906.88 604.98"/>
              <polygon class="cls-2" points="787.48 605.56 843.16 663.37 780.46 723.62 723.23 664.21 787.48 605.56"/>
            </g>
            <g>
              <polygon class="cls-1" points="666.24 605.98 721.93 663.79 659.22 724.04 601.99 664.63 666.24 605.98"/>
              <polygon class="cls-2" points="546.84 606.57 602.53 664.37 539.82 724.63 482.59 665.21 546.84 606.57"/>
            </g>
          </g>
          <g>
            <g>
              <polygon class="cls-1" points="426.78 607.47 482.46 665.27 419.76 725.53 362.53 666.11 426.78 607.47"/>
              <polygon class="cls-2" points="307.38 608.05 363.06 665.86 300.36 726.11 243.13 666.7 307.38 608.05"/>
            </g>
            <g>
              <polygon class="cls-1" points="186.14 608.47 241.82 666.28 179.12 726.53 121.89 667.11 186.14 608.47"/>
              <polygon class="cls-2" points="66.74 609.05 122.42 666.86 59.72 727.11 2.49 667.7 66.74 609.05"/>
            </g>
          </g>
        </g>
      </g>
    </g>
  </g>
</svg>